<?xml version="1.0" encoding="UTF-8"?>
<svg width="200" height="200" viewBox="0 0 200 200" xmlns="http://www.w3.org/2000/svg">
  <!-- Background circle -->
  <circle cx="100" cy="100" r="90" fill="#f0f8ff" stroke="#FF5722" stroke-width="2"/>
  
  <!-- Cell -->
  <circle cx="100" cy="100" r="60" fill="#FFF3E0" stroke="#FF5722" stroke-width="2"/>
  
  <!-- Glucose molecule -->
  <g transform="translate(60,60)">
    <circle cx="0" cy="0" r="15" fill="#FF5722" opacity="0.7"/>
    <text x="0" y="5" text-anchor="middle" fill="white" font-size="12">C6H12O6</text>
  </g>
  
  <!-- Lactic acid -->
  <g transform="translate(120,120)">
    <path d="M0,0 L20,0 L20,20 L0,20 Z" fill="#FF5722" opacity="0.5"/>
    <text x="10" y="15" text-anchor="middle" fill="white" font-size="8">C3H6O3</text>
  </g>
  
  <!-- Energy waves -->
  <g stroke="#FFC107" stroke-width="2" fill="none" opacity="0.6">
    <path d="M100,30 Q120,50 100,70 Q80,50 100,30"/>
    <path d="M100,50 Q130,70 100,90 Q70,70 100,50"/>
  </g>
  
  <!-- No oxygen symbol -->
  <g transform="translate(160,40)">
    <circle cx="0" cy="0" r="10" stroke="#FF5722" stroke-width="2" fill="none"/>
    <path d="M-7,-7 L7,7 M-7,7 L7,-7" stroke="#FF5722" stroke-width="2"/>
  </g>
</svg> 