<?xml version="1.0" encoding="UTF-8"?>
<svg width="24" height="24" viewBox="0 0 24 24" fill="none" xmlns="http://www.w3.org/2000/svg">
    <path d="M11 21H10L8 13H16L14 21H11ZM12 3C7.58 3 4 4.79 4 7C4 9.21 7.58 11 12 11C16.42 11 20 9.21 20 7C20 4.79 16.42 3 12 3ZM12 9C9.79 9 8 8.21 8 7C8 5.79 9.79 5 12 5C14.21 5 16 5.79 16 7C16 8.21 14.21 9 12 9Z" fill="#2196F3"/>
    <path d="M12 13C7.58 13 4 14.79 4 17C4 19.21 7.58 21 12 21C16.42 21 20 19.21 20 17C20 14.79 16.42 13 12 13ZM12 19C9.79 19 8 18.21 8 17C8 15.79 9.79 15 12 15C14.21 15 16 15.79 16 17C16 18.21 14.21 19 12 19Z" fill="#2196F3"/>
</svg> 