<?xml version="1.0" encoding="UTF-8"?>
<svg width="200" height="200" viewBox="0 0 200 200" xmlns="http://www.w3.org/2000/svg">
  <!-- Background circle -->
  <circle cx="100" cy="100" r="90" fill="#f0f8ff" stroke="#4CAF50" stroke-width="2"/>
  
  <!-- Sound wave lines -->
  <g stroke="#4CAF50" stroke-width="2" fill="none">
    <!-- Outer wave -->
    <path d="M30,100 Q50,60 70,100 T110,100 T150,100 T190,100" 
          stroke-dasharray="5,5" opacity="0.6"/>
    
    <!-- Middle wave -->
    <path d="M40,100 Q60,70 80,100 T120,100 T160,100 T180,100" 
          stroke-dasharray="3,3" opacity="0.8"/>
    
    <!-- Inner wave -->
    <path d="M50,100 Q70,80 90,100 T130,100 T170,100" 
          opacity="1"/>
  </g>
  
  <!-- Speaker icon -->
  <g transform="translate(85,85) scale(0.3)">
    <path d="M0,0 L40,0 L40,80 L0,80 Z" fill="#4CAF50"/>
    <path d="M40,20 L80,0 L80,80 L40,60 Z" fill="#4CAF50"/>
    <circle cx="100" cy="40" r="30" fill="none" stroke="#4CAF50" stroke-width="5"/>
  </g>
  
  <!-- Decorative elements -->
  <circle cx="100" cy="100" r="5" fill="#4CAF50"/>
  <circle cx="100" cy="100" r="10" fill="none" stroke="#4CAF50" stroke-width="1" opacity="0.5"/>
  <circle cx="100" cy="100" r="15" fill="none" stroke="#4CAF50" stroke-width="1" opacity="0.3"/>
</svg> 