<?xml version="1.0" encoding="UTF-8"?>
<svg width="200" height="200" viewBox="0 0 200 200" xmlns="http://www.w3.org/2000/svg">
  <!-- Background circle -->
  <circle cx="100" cy="100" r="90" fill="#f0f8ff" stroke="#4CAF50" stroke-width="2"/>
  
  <!-- Cloud -->
  <g transform="translate(50,40)">
    <path d="M0,0 Q10,-10 20,0 T40,0 T60,0" 
          fill="none" stroke="#4CAF50" stroke-width="2"/>
    <circle cx="20" cy="0" r="10" fill="#4CAF50" opacity="0.3"/>
    <circle cx="40" cy="0" r="10" fill="#4CAF50" opacity="0.3"/>
  </g>
  
  <!-- Rain drops -->
  <g stroke="#4CAF50" stroke-width="2">
    <path d="M60,60 L70,80" opacity="0.6"/>
    <path d="M80,60 L90,80" opacity="0.8"/>
    <path d="M100,60 L110,80" opacity="1"/>
    <path d="M120,60 L130,80" opacity="0.8"/>
    <path d="M140,60 L150,80" opacity="0.6"/>
  </g>
  
  <!-- Water body -->
  <path d="M40,120 Q100,160 160,120" 
        fill="none" stroke="#4CAF50" stroke-width="2"/>
  
  <!-- Sun -->
  <g transform="translate(140,30)">
    <circle cx="0" cy="0" r="15" fill="#FFC107" opacity="0.8"/>
    <g stroke="#FFC107" stroke-width="2">
      <line x1="-25" y1="0" x2="25" y2="0"/>
      <line x1="0" y1="-25" x2="0" y2="25"/>
      <line x1="-18" y1="-18" x2="18" y2="18"/>
      <line x1="-18" y1="18" x2="18" y2="-18"/>
    </g>
  </g>
  
  <!-- Decorative elements -->
  <circle cx="100" cy="100" r="5" fill="#4CAF50"/>
  <circle cx="100" cy="100" r="10" fill="none" stroke="#4CAF50" stroke-width="1" opacity="0.5"/>
  <circle cx="100" cy="100" r="15" fill="none" stroke="#4CAF50" stroke-width="1" opacity="0.3"/>
</svg> 